<svg xmlns="http://www.w3.org/2000/svg" viewBox="0 0 24 24" fill="currentColor"><path d="M15.797 12.797L15.867 12.715Q16.148 12.375 16.125 11.941Q16.102 11.508 15.797 11.203L15.797 11.203L11.297 6.703L11.215 6.621Q10.875 6.352 10.441 6.375Q10.008 6.398 9.703 6.703Q9.398 7.008 9.375 7.441Q9.352 7.875 9.621 8.215L9.621 8.215L9.703 8.297L13.406 12L9.703 15.703Q9.375 16.031 9.375 16.500Q9.375 16.969 9.703 17.297Q10.031 17.625 10.500 17.625Q10.969 17.625 11.297 17.297L11.297 17.297L15.797 12.797Z"/></svg>
