<svg xmlns="http://www.w3.org/2000/svg" viewBox="0 0 24 24" fill="currentColor"><path d="M20.250 15L20.250 9Q20.250 7.477 19.664 6.082L19.664 6.082Q19.090 4.734 18.053 3.697Q17.016 2.660 15.668 2.086L15.668 2.086Q14.273 1.500 12.750 1.500L12.750 1.500L11.250 1.500Q9.727 1.500 8.332 2.086L8.332 2.086Q6.984 2.660 5.947 3.697Q4.910 4.734 4.336 6.082L4.336 6.082Q3.750 7.477 3.750 9L3.750 9L3.750 15Q3.750 16.523 4.336 17.918L4.336 17.918Q4.910 19.266 5.947 20.303Q6.984 21.340 8.332 21.914L8.332 21.914Q9.727 22.500 11.250 22.500L11.250 22.500L12.750 22.500Q14.273 22.500 15.668 21.914L15.668 21.914Q17.016 21.340 18.053 20.303Q19.090 19.266 19.664 17.918L19.664 17.918Q20.250 16.523 20.250 15L20.250 15ZM12 8.250L12 3L12.750 3Q13.969 3 15.082 3.469L15.082 3.469Q16.160 3.926 16.992 4.758Q17.824 5.590 18.281 6.668L18.281 6.668Q18.750 7.781 18.750 9L18.750 9L12.750 9Q12.434 9 12.217 8.783Q12 8.566 12 8.250L12 8.250Z"/></svg>
