<svg xmlns="http://www.w3.org/2000/svg" viewBox="0 0 24 24" fill="currentColor"><path d="M4.500 17.250L19.500 17.250Q19.816 17.250 20.033 17.467Q20.250 17.684 20.250 18Q20.250 18.316 20.033 18.533Q19.816 18.750 19.500 18.750L19.500 18.750L4.500 18.750Q4.184 18.750 3.967 18.533Q3.750 18.316 3.750 18Q3.750 17.684 3.967 17.467Q4.184 17.250 4.500 17.250L4.500 17.250ZM12 12.434L18.973 5.473Q19.184 5.250 19.500 5.250Q19.816 5.250 20.033 5.467Q20.250 5.684 20.250 6Q20.250 6.316 20.027 6.527L20.027 6.527L12.527 14.027Q12.328 14.238 12.041 14.250Q11.754 14.262 11.531 14.086L11.531 14.086L11.473 14.027L3.973 6.527Q3.750 6.316 3.750 6Q3.750 5.684 3.967 5.467Q4.184 5.250 4.500 5.250Q4.816 5.250 5.027 5.473L5.027 5.473L12 12.434Z"/></svg>
