<svg xmlns="http://www.w3.org/2000/svg" viewBox="0 0 24 24" fill="currentColor"><path d="M11.250 1.500L12.750 1.500Q14.273 1.500 15.668 2.086L15.668 2.086Q17.016 2.660 18.053 3.697Q19.090 4.734 19.664 6.082L19.664 6.082Q20.250 7.477 20.250 9L20.250 9L20.250 15L20.238 15.387Q20.168 16.805 19.582 18.082L19.582 18.082Q19.020 19.336 18.053 20.303Q17.086 21.270 15.832 21.832L15.832 21.832Q14.555 22.418 13.137 22.488L13.137 22.488L10.863 22.488Q9.445 22.418 8.168 21.832L8.168 21.832Q6.914 21.270 5.947 20.303Q4.980 19.336 4.418 18.082L4.418 18.082Q3.832 16.805 3.762 15.387L3.762 15.387L3.750 15L3.750 9Q3.750 7.477 4.336 6.082L4.336 6.082Q4.910 4.734 5.947 3.697Q6.984 2.660 8.332 2.086L8.332 2.086Q9.727 1.500 11.250 1.500L11.250 1.500ZM14.250 3.188L14.250 8.250Q14.250 8.566 14.033 8.783Q13.816 9 13.500 9L13.500 9L10.500 9Q10.184 9 9.967 8.783Q9.750 8.566 9.750 8.250L9.750 8.250L9.750 3.188Q8.461 3.516 7.436 4.365Q6.410 5.215 5.836 6.398L5.836 6.398Q5.250 7.629 5.250 9L5.250 9L5.250 15Q5.250 16.219 5.719 17.332L5.719 17.332Q6.176 18.410 7.008 19.242Q7.840 20.074 8.918 20.531L8.918 20.531Q10.031 21 11.250 21L11.250 21L12.750 21Q13.969 21 15.082 20.531L15.082 20.531Q16.160 20.074 16.992 19.242Q17.824 18.410 18.281 17.332L18.281 17.332Q18.750 16.219 18.750 15L18.750 15L18.750 9Q18.750 7.629 18.164 6.398L18.164 6.398Q17.590 5.215 16.564 4.365Q15.539 3.516 14.250 3.188L14.250 3.188Z"/></svg>
